<?xml version="1.0" encoding="utf-8"?>
<svg version="1.1" id="Hersheypark_logo" x="0px" y="0px" width="39.9px" height="39.9px" viewBox="0 0 39.9 39.9" style="enable-background:new 0 0 225 39.9;" xmlns="http://www.w3.org/2000/svg">
  <defs/>
  <title>Hersheypark logo</title>
  <g>
    <path fill="#F99D20" d="M21.5,0c-3.7,0.2-5.5,4.4-3.3,7.2c2.1,2.8,4,6.9,2.2,10.4c0,0.1,0,0.2,0,0.3c0,0,0,0,0,0&#10;&#9;&#9;c0.1,0.1,0.2,0.1,0.3,0c3-2.5,5.3-7,5.3-11.4C26.1,3.9,24.8-0.2,21.5,0z M21.4,6.9c-1.5,0-2.7-1.2-2.7-2.7s1.2-2.7,2.7-2.7&#10;&#9;&#9;s2.7,1.2,2.7,2.7S22.9,6.9,21.4,6.9z"/>
    <path fill="#E63E30" d="M35.1,6.9c-2.8-2.5-7-0.8-7.4,2.8c-0.5,3.5-2,7.7-5.8,8.9c-0.1,0-0.2,0.1-0.2,0.2c0,0,0,0,0,0&#10;&#9;&#9;c0,0.1,0.1,0.2,0.2,0.2c3.9,0.3,8.7-1.2,11.8-4.3C35.7,13,37.7,9.2,35.1,6.9z M32.4,12.4c-1.5,0-2.7-1.2-2.7-2.7&#10;&#9;&#9;c0-1.5,1.2-2.7,2.7-2.7s2.7,1.2,2.7,2.7C35.1,11.2,33.9,12.4,32.4,12.4z"/>
    <path fill="#ED3995" d="M39.9,21.5c-0.2-3.7-4.4-5.5-7.2-3.3c-2.8,2.1-6.9,4-10.4,2.2c-0.1,0-0.2,0-0.3,0c0,0,0,0,0,0&#10;&#9;&#9;c-0.1,0.1-0.1,0.2,0,0.3c2.5,3,7,5.3,11.4,5.3C36,26.1,40.1,24.8,39.9,21.5z M35.8,24c-1.5,0-2.7-1.2-2.7-2.7s1.2-2.7,2.7-2.7&#10;&#9;&#9;s2.7,1.2,2.7,2.7S37.3,24,35.8,24z"/>
    <path fill="#8E4199" d="M30.2,27.7c-3.5-0.5-7.7-2-8.9-5.8c0-0.1-0.1-0.2-0.2-0.2c0,0,0,0,0,0c-0.1,0-0.2,0.1-0.2,0.2&#10;&#9;&#9;c-0.3,3.9,1.2,8.7,4.3,11.8c1.9,1.9,5.7,3.9,7.9,1.3C35.5,32.3,33.8,28.2,30.2,27.7z M29.9,34.8c-1.5,0-2.7-1.2-2.7-2.7&#10;&#9;&#9;s1.2-2.7,2.7-2.7c1.5,0,2.7,1.2,2.7,2.7S31.4,34.8,29.9,34.8z"/>
    <path fill="#006782" d="M21.7,32.7c-2.1-2.8-4-6.9-2.2-10.4c0-0.1,0-0.2,0-0.3c0,0,0,0,0,0c-0.1-0.1-0.2-0.1-0.3,0&#10;&#9;&#9;c-3,2.5-5.3,7-5.3,11.4c0,2.7,1.3,6.7,4.6,6.5C22.2,39.7,23.9,35.5,21.7,32.7z M18.5,38.5c-1.5,0-2.7-1.2-2.7-2.7S17,33,18.5,33&#10;&#9;&#9;c1.5,0,2.7,1.2,2.7,2.7S20,38.5,18.5,38.5z"/>
    <path fill="#06A7E0" d="M17.9,20.8C14,20.5,9.2,22,6.1,25.1C4.2,27,2.3,30.8,4.8,33c2.8,2.5,7,0.8,7.4-2.8c0.5-3.5,2-7.7,5.8-8.9&#10;&#9;&#9;c0.1,0,0.2-0.1,0.2-0.2c0,0,0,0,0,0C18.1,20.9,18.1,20.8,17.9,20.8z M7.6,32.9c-1.5,0-2.7-1.2-2.7-2.7s1.2-2.7,2.7-2.7&#10;&#9;&#9;s2.7,1.2,2.7,2.7S9.1,32.9,7.6,32.9z"/>
    <path fill="#40C0C0" d="M17.9,19.1c-2.5-3-7-5.3-11.4-5.3c-2.7,0-6.7,1.3-6.5,4.6c0.2,3.7,4.4,5.5,7.2,3.3c2.8-2.1,6.9-4,10.4-2.2&#10;&#9;&#9;c0.1,0,0.2,0,0.3,0c0,0,0,0,0,0C18,19.4,18,19.2,17.9,19.1z M4.2,21.1c-1.5,0-2.7-1.2-2.7-2.7s1.2-2.7,2.7-2.7s2.7,1.2,2.7,2.7&#10;&#9;&#9;S5.7,21.1,4.2,21.1z"/>
    <path fill="#FFC62C" d="M14.8,6.1C13,4.2,9.2,2.3,6.9,4.8c-2.5,2.8-0.8,7,2.8,7.4c3.5,0.5,7.7,2,8.9,5.8c0,0.1,0.1,0.2,0.2,0.2&#10;&#9;&#9;c0,0,0,0,0,0c0.1,0,0.2-0.1,0.2-0.2C19.4,14,17.9,9.2,14.8,6.1z M9.9,10.5c-1.5,0-2.7-1.2-2.7-2.7C7.2,6.2,8.4,5,9.9,5&#10;&#9;&#9;s2.7,1.2,2.7,2.7C12.6,9.3,11.4,10.5,9.9,10.5z"/>
    <path fill="#8E4199" d="M37.7,36.2c0,0.9-0.7,1.6-1.6,1.6c-0.9,0-1.6-0.7-1.6-1.6c0-0.9,0.7-1.6,1.6-1.6C37,34.6,37.7,35.4,37.7,36.2z&#10;&#9;&#9; M34.8,36.2c0,0.7,0.5,1.3,1.2,1.3c0.7,0,1.2-0.6,1.2-1.3c0-0.7-0.5-1.3-1.2-1.3S34.8,35.5,34.8,36.2z M35.8,37.1h-0.4v-1.6&#10;&#9;&#9;c0.1,0,0.4,0,0.6,0c0.3,0,0.4,0,0.6,0.1c0.1,0.1,0.2,0.2,0.2,0.4c0,0.2-0.1,0.3-0.3,0.4v0c0.2,0.1,0.2,0.2,0.3,0.4&#10;&#9;&#9;c0,0.2,0.1,0.3,0.1,0.4h-0.4c0-0.1-0.1-0.2-0.1-0.4c0-0.2-0.1-0.3-0.3-0.3h-0.2V37.1z M35.8,36.2H36c0.2,0,0.4-0.1,0.4-0.2&#10;&#9;&#9;c0-0.1-0.1-0.2-0.3-0.2c-0.1,0-0.2,0-0.2,0V36.2z"/>
  </g>
</svg>