<?xml version="1.0" encoding="utf-8"?>
<svg viewBox="0 0 368 368" xmlns="http://www.w3.org/2000/svg">
  <defs/>
  <path d="M 368 184 C 368 285.62 285.62 368 184 368 C 82.38 368 0 285.62 0 184 C 0 82.38 82.38 0 184 0 C 285.62 0 368 82.38 368 184 Z M 184 12 C 89.007 12 12 89.007 12 184 C 12 278.993 89.007 356 184 356 C 278.993 356 356 278.993 356 184 C 356 89.007 278.993 12 184 12 Z" style="">
    <title>Outline Circle</title>
  </path>
  <ellipse style="" cx="184" cy="184" rx="159.1" ry="159.1">
    <title>Background Circle</title>
  </ellipse>
  <path style="fill: rgb(252, 213, 95);" d="M 163.745 170.02 C 163.745 170.02 172.326 161.169 177.255 157.513 C 182.096 153.922 192.861 148.378 192.861 148.378 C 192.861 148.378 197.648 154.45 199.741 157.765 C 201.837 161.085 204.89 168.745 204.89 168.745 L 176.276 172.344 L 205.026 175.715 C 205.026 175.715 198.618 182.37 190.763 187.26 C 184.127 191.391 172.904 194.123 172.904 194.123 C 172.904 194.123 168.815 186.541 167.284 182.978 C 165.488 178.799 163.745 170.02 163.745 170.02 Z">
    <title>Beak</title>
  </path>
  <path style="fill: rgb(233, 203, 143);" d="M 260.528 165.497 C 260.528 165.497 275.342 156.037 292.865 160.893 C 314.9 167 313.582 193.527 313.582 193.527 C 313.582 193.527 311.744 181.76 299.84 172.94 C 299.84 172.94 303.857 186.376 284.016 186.972 C 273.304 187.294 269.117 181.955 269.444 177.597 C 269.943 170.934 278.318 168.182 278.318 168.182 C 272.622 166.506 263.331 172.808 263.331 172.808 L 260.528 165.497 Z M 206.967 157.076 C 206.967 157.076 224.157 141.567 246.391 152.137 C 270.47 163.585 264.141 194.123 264.141 194.123 C 264.141 194.123 262.915 176.66 251.57 164.708 C 251.57 164.708 261.922 182.959 234.818 176.343 C 211.588 170.672 224.403 157.45 224.403 157.45 C 219.197 158.335 209.96 163.961 209.96 163.961 L 206.967 157.076 Z">
    <title>Buckeye Nut</title>
  </path>
  <path style="fill: rgb(80, 114, 61);" d="M 260.45 122.797 C 260.45 122.797 277.728 122.909 286.046 124.731 C 298.481 127.456 309.767 136.034 309.767 136.034 C 309.767 136.034 307.615 144.922 305.667 148.449 C 303.788 151.852 298.345 157.53 298.345 157.53 C 298.345 157.53 285.997 154.197 280 154.308 C 273.181 154.435 261.68 158.869 261.68 158.869 C 261.68 158.869 260.431 157.166 259.739 156.37 C 259.042 155.57 257.518 154.089 257.518 154.089 C 257.518 154.089 261.943 150.018 270.156 146.114 C 277.577 142.586 286.924 140.252 286.924 140.252 C 286.924 140.252 277.219 140.618 268.709 142.945 C 262.176 144.731 252.082 149.81 252.082 149.81 C 252.082 149.81 256.338 142.423 258.106 136.386 C 259.65 131.116 260.45 122.797 260.45 122.797 Z">
    <title>Leaf Right</title>
  </path>
  <path style="fill: rgb(80, 114, 61);" d="M 205.026 97.198 C 205.026 97.198 214.325 83.977 220.371 78.735 C 227.449 72.598 244.314 63.554 244.314 63.554 C 244.282 62.592 255.172 80.892 256.531 101.902 C 258.228 128.136 247.444 147.146 247.444 147.146 C 247.444 147.146 242.944 144.467 236.427 143.569 C 230.034 142.688 222.615 143.829 222.615 143.829 C 222.615 143.829 225.126 128.876 226.974 120.956 C 228.956 112.464 234.149 95.799 234.149 95.799 C 234.149 95.799 225.298 110.406 221.668 118.118 C 217.645 126.667 211.421 144.545 211.421 144.545 C 211.421 144.545 213.678 128.086 210.844 115.637 C 208.406 104.927 205.026 97.198 205.026 97.198 Z">
    <title>Leaf Center</title>
  </path>
  <path style="fill: rgb(80, 114, 61);" d="M 137.735 94.701 C 137.735 94.701 137.975 78.812 139.841 71.157 C 141.621 63.851 147.845 50.281 147.845 50.281 C 147.845 50.281 167.458 61.421 175.484 69.175 C 185.541 78.89 192.864 86.927 197.485 98.135 C 205.026 116.424 204.241 118.781 205.026 126.322 C 206.018 135.845 205.026 153.947 205.026 153.947 C 205.026 153.947 198.634 145.385 195.239 141.262 C 191.978 137.302 185.083 129.698 185.083 129.698 C 185.083 129.698 179.045 113.092 175.387 105.06 C 171.515 96.558 162.452 80.197 162.452 80.197 C 162.452 80.197 166.141 92.896 167.479 99.364 C 168.552 104.548 169.877 115.062 169.877 115.062 C 169.877 115.062 158.787 106.105 152.744 102.359 C 147.97 99.4 137.735 94.701 137.735 94.701 Z">
    <title>Leaf Left</title>
  </path>
  <path style="fill: rgb(236, 82, 67);" d="M 183.446 200.235 L 318.454 200.158 C 318.454 200.158 311.671 209.691 307.048 213.118 C 300.354 218.08 292.223 221.876 283.983 223.921 C 274.674 226.231 255.243 225.317 255.243 225.317 C 255.243 225.317 257.006 222.31 257.482 220.652 C 259.071 215.125 257.88 214.602 257.88 214.602 C 257.88 214.602 255.568 218.319 254.212 220.032 C 252.88 221.715 250.762 224.428 248.543 226.07 C 244.312 229.201 239.986 231.388 234.376 233.04 C 229.09 234.597 216.979 234.541 216.979 234.541 C 216.979 234.541 218.239 232.015 218.403 230.64 C 218.583 229.131 217.735 225.956 217.735 225.956 C 217.735 225.956 213.761 234.384 210.321 237.283 C 206.918 240.151 198.158 242.788 198.158 242.788 C 198.158 242.788 202.762 243.397 205.026 243.045 C 207.12 242.719 209.139 241.888 211.008 240.889 C 212.597 240.04 215.356 237.681 215.356 237.681 C 215.356 237.681 221.872 239.703 225.239 240.136 C 229.354 240.665 233.622 241.124 237.686 240.286 C 240.995 239.604 244.182 238.108 246.945 236.165 C 249.312 234.5 252.948 229.895 252.948 229.895 C 252.948 229.895 262.389 231.759 267.161 232.34 C 271.42 232.859 275.772 233.486 280 233.267 C 284.768 233.02 289.522 232.237 294.158 231.093 C 299.075 229.88 308.525 226.15 308.525 226.15 C 308.525 226.15 307.804 229.313 307.236 230.827 C 306.186 233.629 305.146 236.527 303.345 238.916 C 301.014 242.009 297.85 244.434 294.668 246.642 C 290.98 249.201 286.978 251.395 282.759 252.928 C 277.78 254.736 272.474 255.578 267.221 256.259 C 262.358 256.889 257.429 257.03 252.526 256.944 C 248.209 256.868 239.616 255.886 239.616 255.886 C 239.616 255.886 241.609 252.586 242.169 250.761 C 243.723 245.695 242.702 244.522 242.702 244.522 C 242.702 244.522 238.118 252.243 234.863 255.245 C 231.569 258.283 227.565 260.609 223.406 262.278 C 219.482 263.852 215.218 264.569 211.008 264.954 C 207.625 265.263 200.822 264.647 200.822 264.647 C 200.822 264.647 202.223 261.85 202.533 260.335 C 202.929 258.399 202.683 254.409 202.683 254.409 C 202.683 254.409 199.959 259.762 198.044 262.043 C 195.932 264.559 193.471 266.883 190.636 268.542 C 187.392 270.44 180 272.287 180 272.287 C 180 272.287 184.848 273.117 187.272 272.905 C 189.792 272.685 192.341 271.946 194.607 270.961 C 195.965 270.371 198.73 268.299 198.73 268.299 C 198.73 268.299 206.017 269.953 209.73 270.198 C 214.438 270.508 219.264 270.648 223.874 269.642 C 226.62 269.043 229.314 267.963 231.673 266.434 C 233.901 264.99 237.446 260.946 237.446 260.946 C 237.446 260.946 247.62 263.053 252.77 263.698 C 256.626 264.181 260.514 264.569 264.4 264.53 C 268.685 264.487 272.961 263.972 277.201 263.356 C 282.094 262.645 291.748 260.453 291.748 260.453 C 291.748 260.453 286.119 268.748 282.61 272.287 C 280.106 274.812 277.304 277.104 274.222 278.878 C 269.891 281.371 265.12 283.134 260.291 284.42 C 253.808 286.146 247.065 286.874 240.368 287.266 C 234.385 287.616 222.393 286.817 222.393 286.817 C 222.393 286.817 223.539 284.897 224.166 281.732 C 224.906 277.992 223.793 276.612 223.793 276.612 C 223.793 276.612 220.876 282.19 218.859 284.572 C 216.952 286.824 214.72 288.866 212.207 290.412 C 208.677 292.584 204.724 294.401 200.672 295.534 C 197.715 296.361 194.597 296.474 191.535 296.703 C 189.244 296.874 184.644 296.853 184.644 296.853 C 184.644 296.853 185.943 293.675 186.113 291.991 C 186.313 290.006 185.562 286.031 185.562 286.031 C 185.562 286.031 183.001 291.553 181.132 293.92 C 179.352 296.174 177.21 298.2 174.802 299.764 C 171.834 301.691 165.051 303.961 165.051 303.961 C 165.051 303.961 170.17 304.355 172.683 303.96 C 174.566 303.664 176.36 302.922 178.127 302.207 C 179.555 301.629 182.272 300.167 182.272 300.167 C 182.272 300.167 187.779 301.415 190.582 301.693 C 195.359 302.168 198.932 302.321 203.066 301.843 C 206.152 301.486 209.913 300.792 212.114 299.607 C 214.398 298.377 215.721 296.863 217.283 295.235 C 218.397 294.073 220.246 291.422 220.246 291.422 C 220.246 291.422 226.607 293.322 229.729 293.942 C 233.942 294.779 238.264 295.014 242.556 295.185 C 246.769 295.352 255.203 294.968 255.203 294.968 C 255.203 294.968 172.753 367.238 78.96 277.708 C 3.31 205.496 79.252 108.746 79.252 108.746 C 79.252 108.746 77.895 105.475 77.654 103.74 C 77.155 100.147 77.195 96.117 77.898 92.403 C 78.275 90.41 80 86.691 80 86.691 C 80 86.691 92.728 88.19 99.025 89.351 C 104.999 90.453 110.983 91.638 116.787 93.432 C 126.062 96.299 130.022 97.432 136.304 100.269 C 143.369 103.46 151.204 107.823 156.584 111.652 C 164.148 117.035 167.58 120.008 172.577 124.754 C 178.15 130.047 188.09 141.815 188.09 141.815 C 188.09 141.815 173.129 145.912 165.473 147.022 C 157.82 148.131 150.044 148.765 142.318 148.449 C 134.712 148.137 127.143 146.854 119.716 145.185 C 111.791 143.404 96.426 138.012 96.426 138.012 C 96.426 138.012 110.715 148.37 117.547 153.947 C 122.298 157.825 126.697 161.738 131.344 166.117 C 135.931 170.44 140.281 174.846 144.201 179.984 C 148.499 185.618 154.995 198.438 154.995 198.438 C 154.995 198.438 141.728 203.881 135.624 207.587 C 129.868 211.082 124.005 214.737 119.543 219.816 C 114.674 225.357 110.591 231.755 107.851 238.603 C 105.301 244.977 103.67 258.771 103.67 258.771 C 103.67 258.771 107.404 245.75 110.509 239.781 C 113.588 233.862 117.251 228.068 122.035 223.417 C 126.921 218.667 133.181 214.371 139.456 210.972 C 146.307 207.261 154.553 204.251 161.226 202.461 C 169.238 200.312 183.446 200.235 183.446 200.235 Z">
    <title>Cardinal</title>
  </path>
  <ellipse style="fill: rgb(255, 255, 255);" cx="131.141" cy="155.722" rx="8.7" ry="8.7">
    <title>Eye</title>
  </ellipse>
</svg>